<svg data-v-fde0c5aa="" xmlns="http://www.w3.org/2000/svg" viewBox="0 0 300 300" class="font"><!----><defs data-v-fde0c5aa=""><!----></defs><rect data-v-fde0c5aa="" fill="#E8ECD7" x="0" y="0" width="300px" height="300px" class="logo-background-square"></rect><defs data-v-fde0c5aa=""><!----></defs><g data-v-fde0c5aa="" id="a37fddd9-f34c-4e40-a420-0a686735f571" fill="#1F4529" transform="matrix(3.1686590671611983,0,0,3.1686590671611983,36.292668649671896,119.16894797155136)"><path d="M8.62 13.15L3.97 8.20L8.31 3.82L6.36 3.82L2.65 7.67L2.65 3.82L1.17 3.82L1.17 13.15L2.65 13.15L2.65 8.76L6.64 13.15ZM10.11 5.26C10.62 5.26 11.02 4.86 11.02 4.36C11.02 3.86 10.62 3.46 10.11 3.46C9.61 3.46 9.20 3.86 9.20 4.36C9.20 4.86 9.61 5.26 10.11 5.26ZM9.44 13.15L10.82 13.15L10.82 6.53L9.44 6.53ZM15.90 6.53L14.48 6.53L14.48 4.64L13.08 4.64L13.08 6.53L12.21 6.53L12.21 7.67L13.08 7.67L13.08 13.15L14.50 13.15L14.48 7.67L15.90 7.67ZM19.82 13.34C20.74 13.34 21.48 13.07 22.09 12.60L21.28 11.58C20.91 11.93 20.40 12.13 19.85 12.13C18.55 12.13 17.78 11.14 17.78 9.84C17.78 8.55 18.55 7.57 19.85 7.57C20.40 7.57 20.91 7.77 21.28 8.12L22.09 7.10C21.48 6.64 20.74 6.36 19.82 6.36C17.76 6.36 16.33 7.89 16.33 9.84C16.33 11.81 17.76 13.34 19.82 13.34ZM26.67 6.36C25.74 6.36 25.03 6.75 24.62 7.35L24.62 3.24L23.20 3.24L23.20 13.15L24.62 13.15L24.62 9.42C24.62 8.02 25.48 7.57 26.28 7.57C27.30 7.57 27.74 8.30 27.74 9.38L27.74 13.15L29.15 13.15L29.15 9.06C29.15 7 27.83 6.36 26.67 6.36ZM37.13 9.70C37.13 7.73 35.80 6.36 33.88 6.36C31.89 6.36 30.46 7.89 30.46 9.84C30.46 11.80 31.88 13.31 34.05 13.31C35.19 13.31 36.15 12.92 36.75 12.25L35.77 11.46C35.35 11.94 34.78 12.19 34.04 12.19C32.80 12.19 32.05 11.33 31.95 10.15L37.13 10.15ZM33.88 7.50C34.91 7.50 35.58 8.12 35.73 9.17L32.01 9.17C32.21 8.17 32.90 7.50 33.88 7.50ZM41.99 6.36C41.05 6.36 40.35 6.75 39.94 7.32L39.77 6.53L38.53 6.53L38.53 13.15L39.94 13.15L39.94 9.11C40.06 7.95 40.85 7.57 41.59 7.57C42.61 7.57 43.05 8.30 43.05 9.38L43.05 13.15L44.46 13.15L44.46 9.06C44.46 7 43.14 6.36 41.99 6.36ZM51.63 11.87L51.63 3.82L50.14 3.82L50.14 13.15L55.24 13.15L55.24 11.87ZM59.30 13.34C61.38 13.34 62.84 11.81 62.84 9.84C62.84 7.89 61.38 6.36 59.30 6.36C57.18 6.36 55.74 7.89 55.74 9.84C55.74 11.81 57.18 13.34 59.30 13.34ZM59.30 12.13C58.07 12.13 57.21 11.14 57.21 9.84C57.21 8.56 58.07 7.57 59.30 7.57C60.51 7.57 61.37 8.56 61.37 9.84C61.37 11.14 60.51 12.13 59.30 12.13ZM69.45 6.53L69.26 7.47C68.75 6.80 67.97 6.36 66.95 6.36C65.23 6.36 63.86 7.67 63.86 9.81C63.86 11.96 65.23 13.27 66.95 13.27C67.91 13.27 68.67 12.89 69.18 12.26L69.18 12.43C69.18 14.13 68.67 15.02 67.27 15.02C66.91 15.02 66.51 14.95 66.16 14.79L65.84 15.98C66.28 16.13 66.82 16.22 67.35 16.22C69.50 16.22 70.60 14.95 70.60 12.54L70.60 6.53ZM67.29 12.07C66.09 12.07 65.30 11.11 65.30 9.81C65.30 8.53 66.09 7.54 67.29 7.54C68.53 7.54 69.33 8.53 69.33 9.81C69.33 11.11 68.53 12.07 67.29 12.07Z"></path></g><!----><!----></svg>